#!OML:ASF F:\VICON\USERDATA\INSTALL\rory3\rory3.ASF
:FULLY-SPECIFIED
:DEGREES
483
root 8.75771 16.9575 11.9886 1.8418 28.0125 3.76173
lowerback 4.64504 -6.35439 -3.60358
upperback -3.87285 -8.33914 8.05384
thorax -4.93603 -3.86141 11.2826
lowerneck -11.2048 -7.37413 -15.4686
upperneck 21.3435 -8.48714 5.99643
head 9.54902 -4.6004 3.59138
rclavicle 8.47817e-014 -6.04305e-014
rhumerus -32.8283 -19.5052 -56.3197
rradius 45.451
rwrist -27.6046
rhand -18.1323 15.5751
rfingers 7.12502
rthumb 8.14261 -14.248
lclavicle 8.47817e-014 -6.04305e-014
lhumerus 21.0757 -50.9771 83.4139
lradius 44.4018
lwrist -15.882
lhand -8.23795 27.1027
lfingers 7.12502
lthumb 17.6799 56.3189
rfemur -24.5776 -8.29884 29.1233
rtibia 47.2958
rfoot -21.4777 -6.04653
rtoes 40.6029
lfemur -13.7887 10.9186 -19.6572
ltibia 69.5699
lfoot -2.02695 -3.8754
ltoes -3.19046
484
root 8.8458 16.9997 12.0129 2.64656 28.3065 5.10251
lowerback 5.02768 -6.42284 -3.40848
upperback -4.38851 -8.43384 7.31848
thorax -5.82067 -3.86329 10.4778
lowerneck -10.5268 -7.22519 -15.1371
upperneck 21.2844 -8.3915 5.71683
head 9.36151 -4.5699 3.47394
rclavicle -8.39865e-014 -9.54166e-015
rhumerus -32.3771 -18.3521 -56.677
rradius 47.1444
rwrist -28.4438
rhand -17.0952 15.6318
rfingers 7.12502
rthumb 9.14349 -14.1499
lclavicle -8.39865e-014 -9.54166e-015
lhumerus 16.357 -46.3867 86.214
lradius 42.0342
lwrist -17.7137
lhand -7.44324 26.5991
lfingers 7.12502
lthumb 18.4445 55.7446
rfemur -24.1751 -10.1876 27.4737
rtibia 46.7549
rfoot -21.3474 -4.45272
rtoes 40.2142
lfemur -14.6824 9.63153 -21.033
ltibia 69.3269
lfoot -2.90699 -2.42791
ltoes -3.9053
485
root 8.85358 17.0286 12.1273 2.12169 28.0371 4.57242
lowerback 5.12277 -6.34008 -3.21399
upperback -4.1986 -8.30947 7.34546
thorax -5.71886 -3.81904 10.3852
lowerneck -10.5879 -7.19324 -14.8356
upperneck 21.2695 -8.32313 5.40259
head 9.33137 -4.54403 3.32346
rclavicle 2.36554e-014 -3.18055e-014
rhumerus -31.3175 -17.2458 -57.2223
rradius 48.9498
rwrist -29.2798
rhand -16.3028 15.363
rfingers 7.12502
rthumb 9.90799 -14.3839
lclavicle 2.36554e-014 -3.18055e-014
lhumerus 13.1397 -40.9904 87.7667
lradius 39.9225
lwrist -19.2981
lhand -6.15446 27.4222
lfingers 7.12502
lthumb 19.6839 56.4456
rfemur -22.9701 -9.4229 28.0689
rtibia 46.0687
rfoot -21.8494 -5.14588
rtoes 39.7987
lfemur -15.1703 9.33572 -19.6895
ltibia 69.1571
lfoot -4.06676 -2.4866
ltoes -7.6172
486
root 8.86338 17.0542 12.2044 2.01797 28.1445 4.79831
lowerback 5.51038 -6.32608 -3.43099
upperback -3.97267 -8.32723 7.19437
thorax -5.68712 -3.82976 10.3766
lowerneck -11.0016 -7.25316 -14.5366
upperneck 21.129 -8.32467 5.09519
head 9.33106 -4.54129 3.15541
rclavicle 4.11484e-014 6.36111e-015
rhumerus -29.801 -16.5159 -57.7208
rradius 50.4645
rwrist -29.7764
rhand -15.3944 15.1634
rfingers 7.12502
rthumb 10.7843 -14.5398
lclavicle 4.11484e-014 6.36111e-015
lhumerus 11.5239 -35.9091 87.9743
lradius 37.8615
lwrist -19.7262
lhand -5.82655 29.0689
lfingers 7.12502
lthumb 19.9991 58.0597
rfemur -22.1768 -9.0942 27.8432
rtibia 45.611
rfoot -22.5053 -5.79995
rtoes 38.1263
lfemur -15.859 8.40469 -19.3513
ltibia 68.8401
lfoot -4.02721 -1.30038
ltoes -8.24492
487
root 8.93219 17.0839 12.2792 2.2894 26.9047 5.04401
lowerback 5.25157 -5.88452 -2.85429
upperback -3.87807 -7.70296 6.82037
thorax -5.68347 -3.54975 9.55969
lowerneck -11.1612 -7.29367 -14.3473
upperneck 21.1697 -8.36696 4.97116
head 9.36424 -4.55648 3.07164
rclavicle 1.28316e-013 9.54166e-015
rhumerus -28.6751 -15.7434 -58.0265
rradius 51.8871
rwrist -30.0102
rhand -14.6077 15.0251
rfingers 7.12502
rthumb 11.5431 -14.637
lclavicle 1.28316e-013 9.54166e-015
lhumerus 9.93321 -30.7169 88.1025
lradius 35.8444
lwrist -19.9821
lhand -6.62905 29.245
lfingers 7.12502
lthumb 19.2276 58.3145
rfemur -21.6741 -8.72257 27.3881
rtibia 45.1119
rfoot -22.3481 -5.41591
rtoes 32.8215
lfemur -16.2978 8.37031 -19.3114
ltibia 68.3397
lfoot -4.67035 -0.00545719
ltoes -3.35477
488
root 8.98208 17.1047 12.3514 2.45177 26.1646 5.33074
lowerback 5.41277 -5.61603 -2.529
upperback -3.96467 -7.32798 6.48486
thorax -6.01704 -3.36357 9.01945
lowerneck -11.064 -7.26468 -14.3968
upperneck 21.317 -8.35886 5.07106
head 9.40347 -4.55138 3.11884
rclavicle -8.12035e-014 3.81667e-014
rhumerus -27.9865 -14.4393 -58.2198
rradius 53.6212
rwrist -30.3073
rhand -14.298 14.846
rfingers 7.12502
rthumb 11.8418 -14.7992
lclavicle -8.12035e-014 3.81667e-014
lhumerus 8.18664 -24.7611 88.2954
lradius 34.0431
lwrist -20.8118
lhand -6.74312 29.945
lfingers 7.12502
lthumb 19.1179 59.0254
rfemur -21.1584 -8.53372 26.9474
rtibia 44.7524
rfoot -22.2591 -4.50071
rtoes 34.6903
lfemur -16.6827 7.64052 -19.2502
ltibia 67.8261
lfoot -5.48644 0.925887
ltoes 3.52168
